<mxfile host="app.diagrams.net" modified="2023-08-05T18:35:59.621Z" agent="Mozilla/5.0 (Macintosh; Intel Mac OS X 10_15_7) AppleWebKit/537.36 (KHTML, like Gecko) Chrome/112.0.0.0 Safari/537.36" version="21.6.5" etag="00YfQWhrQ0YeeGcu-eeD" type="github">
  <diagram name="Page-1" id="184-HKL6xOaCt50699am">
    <mxGraphModel>
      <root>
        <mxCell id="0" />
        <mxCell id="1" parent="0" />
      </root>
    </mxGraphModel>
  </diagram>
</mxfile>
